<?xml version="1.0" encoding="utf-8" standalone="no"?>
<!DOCTYPE svg PUBLIC "-//W3C//DTD SVG 1.1//EN"
  "http://www.w3.org/Graphics/SVG/1.1/DTD/svg11.dtd">
<!-- Created with matplotlib (https://matplotlib.org/) -->
<svg height="345.6pt" version="1.1" viewBox="0 0 460.8 345.6" width="460.8pt" xmlns="http://www.w3.org/2000/svg" xmlns:xlink="http://www.w3.org/1999/xlink">
 <defs>
  <style type="text/css">
*{stroke-linecap:butt;stroke-linejoin:round;}
  </style>
 </defs>
 <g id="figure_1">
  <g id="patch_1">
   <path d="M 0 345.6 
L 460.8 345.6 
L 460.8 0 
L 0 0 
z
" style="fill:#ffffff;"/>
  </g>
  <g id="axes_1">
   <g id="patch_2">
    <path d="M 46.383986 306.761631 
L 457.79976 306.761631 
L 457.79976 3.00024 
L 46.383986 3.00024 
z
" style="fill:#ffffff;"/>
   </g>
   <g id="matplotlib.axis_1">
    <g id="xtick_1">
     <g id="line2d_1">
      <path clip-path="url(#p0128338af7)" d="M 65.084703 306.761631 
L 65.084703 3.00024 
" style="fill:none;stroke:#b0b0b0;stroke-linecap:square;stroke-width:0.8;"/>
     </g>
     <g id="line2d_2">
      <defs>
       <path d="M 0 0 
L 0 -6 
" id="m4733dd2530" style="stroke:#000000;stroke-width:0.8;"/>
      </defs>
      <g>
       <use style="stroke:#000000;stroke-width:0.8;" x="65.084703" xlink:href="#m4733dd2530" y="306.761631"/>
      </g>
     </g>
     <g id="line2d_3">
      <defs>
       <path d="M 0 0 
L 0 6 
" id="m6652c61508" style="stroke:#000000;stroke-width:0.8;"/>
      </defs>
      <g>
       <use style="stroke:#000000;stroke-width:0.8;" x="65.084703" xlink:href="#m6652c61508" y="3.00024"/>
      </g>
     </g>
     <g id="text_1">
      <!-- $0.0$ -->
      <defs>
       <path d="M 42 31.84375 
C 42 37.96875 41.90625 48.421875 37.703125 56.453125 
C 34 63.484375 28.09375 66 22.90625 66 
C 18.09375 66 12 63.78125 8.203125 56.5625 
C 4.203125 49.015625 3.796875 39.671875 3.796875 31.84375 
C 3.796875 26.109375 3.90625 17.375 7 9.734375 
C 11.296875 -0.609375 19 -2 22.90625 -2 
C 27.5 -2 34.5 -0.109375 38.59375 9.4375 
C 41.59375 16.375 42 24.5 42 31.84375 
z
M 22.90625 -0.40625 
C 16.5 -0.40625 12.703125 5.125 11.296875 12.75 
C 10.203125 18.6875 10.203125 27.328125 10.203125 32.953125 
C 10.203125 40.6875 10.203125 47.109375 11.5 53.234375 
C 13.40625 61.78125 19 64.390625 22.90625 64.390625 
C 27 64.390625 32.296875 61.671875 34.203125 53.4375 
C 35.5 47.71875 35.59375 40.984375 35.59375 32.953125 
C 35.59375 26.421875 35.59375 18.375 34.40625 12.453125 
C 32.296875 1.5 26.40625 -0.40625 22.90625 -0.40625 
z
" id="CMR17-48"/>
       <path d="M 18.40625 4.796875 
C 18.40625 7.6875 16 9.6875 13.59375 9.6875 
C 10.703125 9.6875 8.703125 7.296875 8.703125 4.890625 
C 8.703125 2 11.09375 0 13.5 0 
C 16.40625 0 18.40625 2.390625 18.40625 4.796875 
z
" id="CMMI12-58"/>
      </defs>
      <g transform="translate(55.112942 321.331219)scale(0.16 -0.16)">
       <use transform="scale(0.996264)" xlink:href="#CMR17-48"/>
       <use transform="translate(45.690477 0)scale(0.996264)" xlink:href="#CMMI12-58"/>
       <use transform="translate(72.787654 0)scale(0.996264)" xlink:href="#CMR17-48"/>
      </g>
     </g>
    </g>
    <g id="xtick_2">
     <g id="line2d_4">
      <path clip-path="url(#p0128338af7)" d="M 139.887571 306.761631 
L 139.887571 3.00024 
" style="fill:none;stroke:#b0b0b0;stroke-linecap:square;stroke-width:0.8;"/>
     </g>
     <g id="line2d_5">
      <g>
       <use style="stroke:#000000;stroke-width:0.8;" x="139.887571" xlink:href="#m4733dd2530" y="306.761631"/>
      </g>
     </g>
     <g id="line2d_6">
      <g>
       <use style="stroke:#000000;stroke-width:0.8;" x="139.887571" xlink:href="#m6652c61508" y="3.00024"/>
      </g>
     </g>
     <g id="text_2">
      <!-- $0.2$ -->
      <defs>
       <path d="M 41.703125 15.46875 
L 39.90625 15.46875 
C 38.90625 8.390625 38.09375 7.1875 37.703125 6.59375 
C 37.203125 5.796875 30 5.796875 28.59375 5.796875 
L 9.40625 5.796875 
C 13 9.6875 20 16.765625 28.5 24.9375 
C 34.59375 30.71875 41.703125 37.5 41.703125 47.390625 
C 41.703125 59.1875 32.296875 66 21.796875 66 
C 10.796875 66 4.09375 56.296875 4.09375 47.296875 
C 4.09375 43.390625 7 42.890625 8.203125 42.890625 
C 9.203125 42.890625 12.203125 43.484375 12.203125 46.984375 
C 12.203125 50.09375 9.59375 51 8.203125 51 
C 7.59375 51 7 50.890625 6.59375 50.6875 
C 8.5 59.1875 14.296875 63.390625 20.40625 63.390625 
C 29.09375 63.390625 34.796875 56.5 34.796875 47.390625 
C 34.796875 38.703125 29.703125 31.21875 24 24.734375 
L 4.09375 2.296875 
L 4.09375 0 
L 39.296875 0 
z
" id="CMR17-50"/>
      </defs>
      <g transform="translate(129.91581 321.331219)scale(0.16 -0.16)">
       <use transform="scale(0.996264)" xlink:href="#CMR17-48"/>
       <use transform="translate(45.690477 0)scale(0.996264)" xlink:href="#CMMI12-58"/>
       <use transform="translate(72.787654 0)scale(0.996264)" xlink:href="#CMR17-50"/>
      </g>
     </g>
    </g>
    <g id="xtick_3">
     <g id="line2d_7">
      <path clip-path="url(#p0128338af7)" d="M 214.690439 306.761631 
L 214.690439 3.00024 
" style="fill:none;stroke:#b0b0b0;stroke-linecap:square;stroke-width:0.8;"/>
     </g>
     <g id="line2d_8">
      <g>
       <use style="stroke:#000000;stroke-width:0.8;" x="214.690439" xlink:href="#m4733dd2530" y="306.761631"/>
      </g>
     </g>
     <g id="line2d_9">
      <g>
       <use style="stroke:#000000;stroke-width:0.8;" x="214.690439" xlink:href="#m6652c61508" y="3.00024"/>
      </g>
     </g>
     <g id="text_3">
      <!-- $0.4$ -->
      <defs>
       <path d="M 33.59375 64.796875 
C 33.59375 66.890625 33.5 67 31.703125 67 
L 2 19.59375 
L 2 17 
L 27.796875 17 
L 27.796875 7.1875 
C 27.796875 3.59375 27.59375 2.59375 20.59375 2.59375 
L 18.703125 2.59375 
L 18.703125 0 
C 21.90625 0.1875 27.296875 0.1875 30.703125 0.1875 
C 34.09375 0.1875 39.5 0.1875 42.703125 0 
L 42.703125 2.59375 
L 40.796875 2.59375 
C 33.796875 2.59375 33.59375 3.59375 33.59375 7.1875 
L 33.59375 17 
L 43.796875 17 
L 43.796875 19.59375 
L 33.59375 19.59375 
z
M 28.09375 58.171875 
L 28.09375 19.59375 
L 4 19.59375 
z
" id="CMR17-52"/>
      </defs>
      <g transform="translate(204.718678 321.331219)scale(0.16 -0.16)">
       <use transform="scale(0.996264)" xlink:href="#CMR17-48"/>
       <use transform="translate(45.690477 0)scale(0.996264)" xlink:href="#CMMI12-58"/>
       <use transform="translate(72.787654 0)scale(0.996264)" xlink:href="#CMR17-52"/>
      </g>
     </g>
    </g>
    <g id="xtick_4">
     <g id="line2d_10">
      <path clip-path="url(#p0128338af7)" d="M 289.493307 306.761631 
L 289.493307 3.00024 
" style="fill:none;stroke:#b0b0b0;stroke-linecap:square;stroke-width:0.8;"/>
     </g>
     <g id="line2d_11">
      <g>
       <use style="stroke:#000000;stroke-width:0.8;" x="289.493307" xlink:href="#m4733dd2530" y="306.761631"/>
      </g>
     </g>
     <g id="line2d_12">
      <g>
       <use style="stroke:#000000;stroke-width:0.8;" x="289.493307" xlink:href="#m6652c61508" y="3.00024"/>
      </g>
     </g>
     <g id="text_4">
      <!-- $0.6$ -->
      <defs>
       <path d="M 10.59375 34.34375 
C 10.59375 58 21.796875 63.6875 28.296875 63.6875 
C 30.40625 63.6875 35.5 63.265625 37.5 59.09375 
C 35.90625 59.09375 32.90625 59.09375 32.90625 55.59375 
C 32.90625 52.890625 35.09375 52 36.5 52 
C 37.40625 52 40.09375 52.390625 40.09375 55.796875 
C 40.09375 62.296875 35.09375 66 28.203125 66 
C 16.296875 66 3.796875 53.296875 3.796875 31.421875 
C 3.796875 4.015625 15.09375 -2 23.09375 -2 
C 32.796875 -2 42 6.734375 42 20.234375 
C 42 32.828125 33.90625 42 23.703125 42 
C 17.59375 42 13.09375 37.96875 10.59375 30.921875 
z
M 23.09375 0.390625 
C 10.796875 0.390625 10.796875 18.9375 10.796875 22.65625 
C 10.796875 29.90625 14.203125 40.390625 23.5 40.390625 
C 25.203125 40.390625 30.09375 40.390625 33.40625 33.4375 
C 35.203125 29.515625 35.203125 25.375 35.203125 20.34375 
C 35.203125 14.90625 35.203125 10.875 33.09375 6.84375 
C 30.90625 2.703125 27.703125 0.390625 23.09375 0.390625 
z
" id="CMR17-54"/>
      </defs>
      <g transform="translate(279.521546 321.331219)scale(0.16 -0.16)">
       <use transform="scale(0.996264)" xlink:href="#CMR17-48"/>
       <use transform="translate(45.690477 0)scale(0.996264)" xlink:href="#CMMI12-58"/>
       <use transform="translate(72.787654 0)scale(0.996264)" xlink:href="#CMR17-54"/>
      </g>
     </g>
    </g>
    <g id="xtick_5">
     <g id="line2d_13">
      <path clip-path="url(#p0128338af7)" d="M 364.296175 306.761631 
L 364.296175 3.00024 
" style="fill:none;stroke:#b0b0b0;stroke-linecap:square;stroke-width:0.8;"/>
     </g>
     <g id="line2d_14">
      <g>
       <use style="stroke:#000000;stroke-width:0.8;" x="364.296175" xlink:href="#m4733dd2530" y="306.761631"/>
      </g>
     </g>
     <g id="line2d_15">
      <g>
       <use style="stroke:#000000;stroke-width:0.8;" x="364.296175" xlink:href="#m6652c61508" y="3.00024"/>
      </g>
     </g>
     <g id="text_5">
      <!-- $0.8$ -->
      <defs>
       <path d="M 27.203125 35.765625 
C 33.5 38.96875 39.90625 43.796875 39.90625 51.53125 
C 39.90625 60.6875 31.09375 66 23 66 
C 13.90625 66 5.90625 59.375 5.90625 50.234375 
C 5.90625 47.71875 6.5 43.390625 10.40625 39.578125 
C 11.40625 38.578125 15.59375 35.5625 18.296875 33.65625 
C 13.796875 31.34375 3.296875 25.8125 3.296875 14.765625 
C 3.296875 4.40625 13.09375 -2 22.796875 -2 
C 33.5 -2 42.5 5.71875 42.5 15.96875 
C 42.5 25.109375 36.40625 29.328125 32.40625 32.046875 
z
M 14.09375 44.609375 
C 13.296875 45.109375 9.296875 48.21875 9.296875 52.9375 
C 9.296875 59.078125 15.59375 63.6875 22.796875 63.6875 
C 30.703125 63.6875 36.5 58.0625 36.5 51.53125 
C 36.5 42.1875 26.09375 36.859375 25.59375 36.859375 
C 25.5 36.859375 25.40625 36.859375 24.59375 37.46875 
z
M 32.5 24 
C 34 22.90625 38.796875 19.578125 38.796875 13.453125 
C 38.796875 6.015625 31.40625 0.390625 23 0.390625 
C 13.90625 0.390625 7 6.921875 7 14.859375 
C 7 22.796875 13.09375 29.4375 20 32.546875 
z
" id="CMR17-56"/>
      </defs>
      <g transform="translate(354.324414 321.331219)scale(0.16 -0.16)">
       <use transform="scale(0.996264)" xlink:href="#CMR17-48"/>
       <use transform="translate(45.690477 0)scale(0.996264)" xlink:href="#CMMI12-58"/>
       <use transform="translate(72.787654 0)scale(0.996264)" xlink:href="#CMR17-56"/>
      </g>
     </g>
    </g>
    <g id="xtick_6">
     <g id="line2d_16">
      <path clip-path="url(#p0128338af7)" d="M 439.099043 306.761631 
L 439.099043 3.00024 
" style="fill:none;stroke:#b0b0b0;stroke-linecap:square;stroke-width:0.8;"/>
     </g>
     <g id="line2d_17">
      <g>
       <use style="stroke:#000000;stroke-width:0.8;" x="439.099043" xlink:href="#m4733dd2530" y="306.761631"/>
      </g>
     </g>
     <g id="line2d_18">
      <g>
       <use style="stroke:#000000;stroke-width:0.8;" x="439.099043" xlink:href="#m6652c61508" y="3.00024"/>
      </g>
     </g>
     <g id="text_6">
      <!-- $1.0$ -->
      <defs>
       <path d="M 26.59375 63.796875 
C 26.59375 65.890625 26.5 66 25.09375 66 
C 21.203125 61.359375 15.296875 59.890625 9.703125 59.6875 
C 9.40625 59.6875 8.90625 59.6875 8.796875 59.5 
C 8.703125 59.296875 8.703125 59.09375 8.703125 57 
C 11.796875 57 17 57.59375 21 59.984375 
L 21 7.296875 
C 21 3.796875 20.796875 2.59375 12.203125 2.59375 
L 9.203125 2.59375 
L 9.203125 0 
C 14 0.09375 19 0.1875 23.796875 0.1875 
C 28.59375 0.1875 33.59375 0.09375 38.40625 0 
L 38.40625 2.59375 
L 35.40625 2.59375 
C 26.796875 2.59375 26.59375 3.6875 26.59375 7.296875 
z
" id="CMR17-49"/>
      </defs>
      <g transform="translate(429.127282 321.331219)scale(0.16 -0.16)">
       <use transform="scale(0.996264)" xlink:href="#CMR17-49"/>
       <use transform="translate(45.690477 0)scale(0.996264)" xlink:href="#CMMI12-58"/>
       <use transform="translate(72.787654 0)scale(0.996264)" xlink:href="#CMR17-48"/>
      </g>
     </g>
    </g>
    <g id="xtick_7">
     <g id="line2d_19">
      <defs>
       <path d="M 0 0 
L 0 -3 
" id="md335b25ba4" style="stroke:#000000;stroke-width:0.6;"/>
      </defs>
      <g>
       <use style="stroke:#000000;stroke-width:0.6;" x="83.78542" xlink:href="#md335b25ba4" y="306.761631"/>
      </g>
     </g>
     <g id="line2d_20">
      <defs>
       <path d="M 0 0 
L 0 3 
" id="mb88df9cb52" style="stroke:#000000;stroke-width:0.6;"/>
      </defs>
      <g>
       <use style="stroke:#000000;stroke-width:0.6;" x="83.78542" xlink:href="#mb88df9cb52" y="3.00024"/>
      </g>
     </g>
    </g>
    <g id="xtick_8">
     <g id="line2d_21">
      <g>
       <use style="stroke:#000000;stroke-width:0.6;" x="102.486137" xlink:href="#md335b25ba4" y="306.761631"/>
      </g>
     </g>
     <g id="line2d_22">
      <g>
       <use style="stroke:#000000;stroke-width:0.6;" x="102.486137" xlink:href="#mb88df9cb52" y="3.00024"/>
      </g>
     </g>
    </g>
    <g id="xtick_9">
     <g id="line2d_23">
      <g>
       <use style="stroke:#000000;stroke-width:0.6;" x="121.186854" xlink:href="#md335b25ba4" y="306.761631"/>
      </g>
     </g>
     <g id="line2d_24">
      <g>
       <use style="stroke:#000000;stroke-width:0.6;" x="121.186854" xlink:href="#mb88df9cb52" y="3.00024"/>
      </g>
     </g>
    </g>
    <g id="xtick_10">
     <g id="line2d_25">
      <g>
       <use style="stroke:#000000;stroke-width:0.6;" x="158.588288" xlink:href="#md335b25ba4" y="306.761631"/>
      </g>
     </g>
     <g id="line2d_26">
      <g>
       <use style="stroke:#000000;stroke-width:0.6;" x="158.588288" xlink:href="#mb88df9cb52" y="3.00024"/>
      </g>
     </g>
    </g>
    <g id="xtick_11">
     <g id="line2d_27">
      <g>
       <use style="stroke:#000000;stroke-width:0.6;" x="177.289005" xlink:href="#md335b25ba4" y="306.761631"/>
      </g>
     </g>
     <g id="line2d_28">
      <g>
       <use style="stroke:#000000;stroke-width:0.6;" x="177.289005" xlink:href="#mb88df9cb52" y="3.00024"/>
      </g>
     </g>
    </g>
    <g id="xtick_12">
     <g id="line2d_29">
      <g>
       <use style="stroke:#000000;stroke-width:0.6;" x="195.989722" xlink:href="#md335b25ba4" y="306.761631"/>
      </g>
     </g>
     <g id="line2d_30">
      <g>
       <use style="stroke:#000000;stroke-width:0.6;" x="195.989722" xlink:href="#mb88df9cb52" y="3.00024"/>
      </g>
     </g>
    </g>
    <g id="xtick_13">
     <g id="line2d_31">
      <g>
       <use style="stroke:#000000;stroke-width:0.6;" x="233.391156" xlink:href="#md335b25ba4" y="306.761631"/>
      </g>
     </g>
     <g id="line2d_32">
      <g>
       <use style="stroke:#000000;stroke-width:0.6;" x="233.391156" xlink:href="#mb88df9cb52" y="3.00024"/>
      </g>
     </g>
    </g>
    <g id="xtick_14">
     <g id="line2d_33">
      <g>
       <use style="stroke:#000000;stroke-width:0.6;" x="252.091873" xlink:href="#md335b25ba4" y="306.761631"/>
      </g>
     </g>
     <g id="line2d_34">
      <g>
       <use style="stroke:#000000;stroke-width:0.6;" x="252.091873" xlink:href="#mb88df9cb52" y="3.00024"/>
      </g>
     </g>
    </g>
    <g id="xtick_15">
     <g id="line2d_35">
      <g>
       <use style="stroke:#000000;stroke-width:0.6;" x="270.79259" xlink:href="#md335b25ba4" y="306.761631"/>
      </g>
     </g>
     <g id="line2d_36">
      <g>
       <use style="stroke:#000000;stroke-width:0.6;" x="270.79259" xlink:href="#mb88df9cb52" y="3.00024"/>
      </g>
     </g>
    </g>
    <g id="xtick_16">
     <g id="line2d_37">
      <g>
       <use style="stroke:#000000;stroke-width:0.6;" x="308.194024" xlink:href="#md335b25ba4" y="306.761631"/>
      </g>
     </g>
     <g id="line2d_38">
      <g>
       <use style="stroke:#000000;stroke-width:0.6;" x="308.194024" xlink:href="#mb88df9cb52" y="3.00024"/>
      </g>
     </g>
    </g>
    <g id="xtick_17">
     <g id="line2d_39">
      <g>
       <use style="stroke:#000000;stroke-width:0.6;" x="326.894741" xlink:href="#md335b25ba4" y="306.761631"/>
      </g>
     </g>
     <g id="line2d_40">
      <g>
       <use style="stroke:#000000;stroke-width:0.6;" x="326.894741" xlink:href="#mb88df9cb52" y="3.00024"/>
      </g>
     </g>
    </g>
    <g id="xtick_18">
     <g id="line2d_41">
      <g>
       <use style="stroke:#000000;stroke-width:0.6;" x="345.595458" xlink:href="#md335b25ba4" y="306.761631"/>
      </g>
     </g>
     <g id="line2d_42">
      <g>
       <use style="stroke:#000000;stroke-width:0.6;" x="345.595458" xlink:href="#mb88df9cb52" y="3.00024"/>
      </g>
     </g>
    </g>
    <g id="xtick_19">
     <g id="line2d_43">
      <g>
       <use style="stroke:#000000;stroke-width:0.6;" x="382.996892" xlink:href="#md335b25ba4" y="306.761631"/>
      </g>
     </g>
     <g id="line2d_44">
      <g>
       <use style="stroke:#000000;stroke-width:0.6;" x="382.996892" xlink:href="#mb88df9cb52" y="3.00024"/>
      </g>
     </g>
    </g>
    <g id="xtick_20">
     <g id="line2d_45">
      <g>
       <use style="stroke:#000000;stroke-width:0.6;" x="401.697609" xlink:href="#md335b25ba4" y="306.761631"/>
      </g>
     </g>
     <g id="line2d_46">
      <g>
       <use style="stroke:#000000;stroke-width:0.6;" x="401.697609" xlink:href="#mb88df9cb52" y="3.00024"/>
      </g>
     </g>
    </g>
    <g id="xtick_21">
     <g id="line2d_47">
      <g>
       <use style="stroke:#000000;stroke-width:0.6;" x="420.398326" xlink:href="#md335b25ba4" y="306.761631"/>
      </g>
     </g>
     <g id="line2d_48">
      <g>
       <use style="stroke:#000000;stroke-width:0.6;" x="420.398326" xlink:href="#mb88df9cb52" y="3.00024"/>
      </g>
     </g>
    </g>
    <g id="text_7">
     <!-- $x$ -->
     <defs>
      <path d="M 47.40625 41 
C 44.203125 40.390625 43 37.984375 43 36.09375 
C 43 33.6875 44.90625 32.890625 46.296875 32.890625 
C 49.296875 32.890625 51.40625 35.484375 51.40625 38.1875 
C 51.40625 42.09375 46.59375 44 42.40625 44 
C 36.296875 44 32.90625 38.296875 32 36.390625 
C 29.703125 43.59375 23.5 44 21.703125 44 
C 11.5 44 6.09375 31.140625 6.09375 28.890625 
C 6.09375 28.484375 6.5 27.96875 7.203125 27.96875 
C 8 27.96875 8.203125 28.578125 8.40625 28.984375 
C 11.796875 40.1875 18.5 41.984375 21.40625 41.984375 
C 25.90625 41.984375 26.796875 38.09375 26.796875 35.6875 
C 26.796875 33.484375 26.203125 31.140625 25 26.21875 
L 21.59375 12.15625 
C 20.09375 6.09375 17.203125 1 11.90625 1 
C 11.40625 1 8.90625 1 6.796875 1.96875 
C 10.40625 2.59375 11.203125 5.59375 11.203125 6.796875 
C 11.203125 8.796875 9.703125 10 7.796875 10 
C 5.40625 10 2.796875 7.890625 2.796875 4.6875 
C 2.796875 0.890625 7.5 -1 11.796875 -1 
C 16.59375 -1 20 2.390625 22.09375 6.484375 
C 23.703125 1 28.703125 -1 32.40625 -1 
C 42.59375 -1 48 11.734375 48 14 
C 48 14.515625 47.59375 14.921875 47 14.921875 
C 46.09375 14.921875 46 14.40625 45.703125 13.59375 
C 43 4.6875 37.203125 1 32.703125 1 
C 29.203125 1 27.296875 3.1875 27.296875 7.296875 
C 27.296875 9.484375 27.703125 11.125 29.296875 17.90625 
L 32.796875 31.859375 
C 34.296875 37.890625 37.703125 41.984375 42.296875 41.984375 
C 42.5 41.984375 45.296875 41.984375 47.40625 41 
z
" id="CMMI12-120"/>
     </defs>
     <g transform="translate(247.657148 339.500284)scale(0.16 -0.16)">
      <use transform="scale(0.996264)" xlink:href="#CMMI12-120"/>
     </g>
    </g>
   </g>
   <g id="matplotlib.axis_2">
    <g id="ytick_1">
     <g id="line2d_49">
      <path clip-path="url(#p0128338af7)" d="M 46.383986 292.954295 
L 457.79976 292.954295 
" style="fill:none;stroke:#b0b0b0;stroke-linecap:square;stroke-width:0.8;"/>
     </g>
     <g id="line2d_50">
      <defs>
       <path d="M 0 0 
L 6 0 
" id="m560e0ee5bf" style="stroke:#000000;stroke-width:0.8;"/>
      </defs>
      <g>
       <use style="stroke:#000000;stroke-width:0.8;" x="46.383986" xlink:href="#m560e0ee5bf" y="292.954295"/>
      </g>
     </g>
     <g id="line2d_51">
      <defs>
       <path d="M 0 0 
L -6 0 
" id="m9bf1b2867a" style="stroke:#000000;stroke-width:0.8;"/>
      </defs>
      <g>
       <use style="stroke:#000000;stroke-width:0.8;" x="457.79976" xlink:href="#m9bf1b2867a" y="292.954295"/>
      </g>
     </g>
     <g id="text_8">
      <!-- $0.0$ -->
      <g transform="translate(22.940464 298.489089)scale(0.16 -0.16)">
       <use transform="scale(0.996264)" xlink:href="#CMR17-48"/>
       <use transform="translate(45.690477 0)scale(0.996264)" xlink:href="#CMMI12-58"/>
       <use transform="translate(72.787654 0)scale(0.996264)" xlink:href="#CMR17-48"/>
      </g>
     </g>
    </g>
    <g id="ytick_2">
     <g id="line2d_52">
      <path clip-path="url(#p0128338af7)" d="M 46.383986 237.724951 
L 457.79976 237.724951 
" style="fill:none;stroke:#b0b0b0;stroke-linecap:square;stroke-width:0.8;"/>
     </g>
     <g id="line2d_53">
      <g>
       <use style="stroke:#000000;stroke-width:0.8;" x="46.383986" xlink:href="#m560e0ee5bf" y="237.724951"/>
      </g>
     </g>
     <g id="line2d_54">
      <g>
       <use style="stroke:#000000;stroke-width:0.8;" x="457.79976" xlink:href="#m9bf1b2867a" y="237.724951"/>
      </g>
     </g>
     <g id="text_9">
      <!-- $0.2$ -->
      <g transform="translate(22.940464 243.259745)scale(0.16 -0.16)">
       <use transform="scale(0.996264)" xlink:href="#CMR17-48"/>
       <use transform="translate(45.690477 0)scale(0.996264)" xlink:href="#CMMI12-58"/>
       <use transform="translate(72.787654 0)scale(0.996264)" xlink:href="#CMR17-50"/>
      </g>
     </g>
    </g>
    <g id="ytick_3">
     <g id="line2d_55">
      <path clip-path="url(#p0128338af7)" d="M 46.383986 182.495607 
L 457.79976 182.495607 
" style="fill:none;stroke:#b0b0b0;stroke-linecap:square;stroke-width:0.8;"/>
     </g>
     <g id="line2d_56">
      <g>
       <use style="stroke:#000000;stroke-width:0.8;" x="46.383986" xlink:href="#m560e0ee5bf" y="182.495607"/>
      </g>
     </g>
     <g id="line2d_57">
      <g>
       <use style="stroke:#000000;stroke-width:0.8;" x="457.79976" xlink:href="#m9bf1b2867a" y="182.495607"/>
      </g>
     </g>
     <g id="text_10">
      <!-- $0.4$ -->
      <g transform="translate(22.940464 188.030402)scale(0.16 -0.16)">
       <use transform="scale(0.996264)" xlink:href="#CMR17-48"/>
       <use transform="translate(45.690477 0)scale(0.996264)" xlink:href="#CMMI12-58"/>
       <use transform="translate(72.787654 0)scale(0.996264)" xlink:href="#CMR17-52"/>
      </g>
     </g>
    </g>
    <g id="ytick_4">
     <g id="line2d_58">
      <path clip-path="url(#p0128338af7)" d="M 46.383986 127.266264 
L 457.79976 127.266264 
" style="fill:none;stroke:#b0b0b0;stroke-linecap:square;stroke-width:0.8;"/>
     </g>
     <g id="line2d_59">
      <g>
       <use style="stroke:#000000;stroke-width:0.8;" x="46.383986" xlink:href="#m560e0ee5bf" y="127.266264"/>
      </g>
     </g>
     <g id="line2d_60">
      <g>
       <use style="stroke:#000000;stroke-width:0.8;" x="457.79976" xlink:href="#m9bf1b2867a" y="127.266264"/>
      </g>
     </g>
     <g id="text_11">
      <!-- $0.6$ -->
      <g transform="translate(22.940464 132.801058)scale(0.16 -0.16)">
       <use transform="scale(0.996264)" xlink:href="#CMR17-48"/>
       <use transform="translate(45.690477 0)scale(0.996264)" xlink:href="#CMMI12-58"/>
       <use transform="translate(72.787654 0)scale(0.996264)" xlink:href="#CMR17-54"/>
      </g>
     </g>
    </g>
    <g id="ytick_5">
     <g id="line2d_61">
      <path clip-path="url(#p0128338af7)" d="M 46.383986 72.03692 
L 457.79976 72.03692 
" style="fill:none;stroke:#b0b0b0;stroke-linecap:square;stroke-width:0.8;"/>
     </g>
     <g id="line2d_62">
      <g>
       <use style="stroke:#000000;stroke-width:0.8;" x="46.383986" xlink:href="#m560e0ee5bf" y="72.03692"/>
      </g>
     </g>
     <g id="line2d_63">
      <g>
       <use style="stroke:#000000;stroke-width:0.8;" x="457.79976" xlink:href="#m9bf1b2867a" y="72.03692"/>
      </g>
     </g>
     <g id="text_12">
      <!-- $0.8$ -->
      <g transform="translate(22.940464 77.571714)scale(0.16 -0.16)">
       <use transform="scale(0.996264)" xlink:href="#CMR17-48"/>
       <use transform="translate(45.690477 0)scale(0.996264)" xlink:href="#CMMI12-58"/>
       <use transform="translate(72.787654 0)scale(0.996264)" xlink:href="#CMR17-56"/>
      </g>
     </g>
    </g>
    <g id="ytick_6">
     <g id="line2d_64">
      <path clip-path="url(#p0128338af7)" d="M 46.383986 16.807576 
L 457.79976 16.807576 
" style="fill:none;stroke:#b0b0b0;stroke-linecap:square;stroke-width:0.8;"/>
     </g>
     <g id="line2d_65">
      <g>
       <use style="stroke:#000000;stroke-width:0.8;" x="46.383986" xlink:href="#m560e0ee5bf" y="16.807576"/>
      </g>
     </g>
     <g id="line2d_66">
      <g>
       <use style="stroke:#000000;stroke-width:0.8;" x="457.79976" xlink:href="#m9bf1b2867a" y="16.807576"/>
      </g>
     </g>
     <g id="text_13">
      <!-- $1.0$ -->
      <g transform="translate(22.940464 22.34237)scale(0.16 -0.16)">
       <use transform="scale(0.996264)" xlink:href="#CMR17-49"/>
       <use transform="translate(45.690477 0)scale(0.996264)" xlink:href="#CMMI12-58"/>
       <use transform="translate(72.787654 0)scale(0.996264)" xlink:href="#CMR17-48"/>
      </g>
     </g>
    </g>
    <g id="ytick_7">
     <g id="line2d_67">
      <defs>
       <path d="M 0 0 
L 3 0 
" id="me7505380e5" style="stroke:#000000;stroke-width:0.6;"/>
      </defs>
      <g>
       <use style="stroke:#000000;stroke-width:0.6;" x="46.383986" xlink:href="#me7505380e5" y="279.146959"/>
      </g>
     </g>
     <g id="line2d_68">
      <defs>
       <path d="M 0 0 
L -3 0 
" id="m5dc0add215" style="stroke:#000000;stroke-width:0.6;"/>
      </defs>
      <g>
       <use style="stroke:#000000;stroke-width:0.6;" x="457.79976" xlink:href="#m5dc0add215" y="279.146959"/>
      </g>
     </g>
    </g>
    <g id="ytick_8">
     <g id="line2d_69">
      <g>
       <use style="stroke:#000000;stroke-width:0.6;" x="46.383986" xlink:href="#me7505380e5" y="265.339623"/>
      </g>
     </g>
     <g id="line2d_70">
      <g>
       <use style="stroke:#000000;stroke-width:0.6;" x="457.79976" xlink:href="#m5dc0add215" y="265.339623"/>
      </g>
     </g>
    </g>
    <g id="ytick_9">
     <g id="line2d_71">
      <g>
       <use style="stroke:#000000;stroke-width:0.6;" x="46.383986" xlink:href="#me7505380e5" y="251.532287"/>
      </g>
     </g>
     <g id="line2d_72">
      <g>
       <use style="stroke:#000000;stroke-width:0.6;" x="457.79976" xlink:href="#m5dc0add215" y="251.532287"/>
      </g>
     </g>
    </g>
    <g id="ytick_10">
     <g id="line2d_73">
      <g>
       <use style="stroke:#000000;stroke-width:0.6;" x="46.383986" xlink:href="#me7505380e5" y="223.917615"/>
      </g>
     </g>
     <g id="line2d_74">
      <g>
       <use style="stroke:#000000;stroke-width:0.6;" x="457.79976" xlink:href="#m5dc0add215" y="223.917615"/>
      </g>
     </g>
    </g>
    <g id="ytick_11">
     <g id="line2d_75">
      <g>
       <use style="stroke:#000000;stroke-width:0.6;" x="46.383986" xlink:href="#me7505380e5" y="210.110279"/>
      </g>
     </g>
     <g id="line2d_76">
      <g>
       <use style="stroke:#000000;stroke-width:0.6;" x="457.79976" xlink:href="#m5dc0add215" y="210.110279"/>
      </g>
     </g>
    </g>
    <g id="ytick_12">
     <g id="line2d_77">
      <g>
       <use style="stroke:#000000;stroke-width:0.6;" x="46.383986" xlink:href="#me7505380e5" y="196.302943"/>
      </g>
     </g>
     <g id="line2d_78">
      <g>
       <use style="stroke:#000000;stroke-width:0.6;" x="457.79976" xlink:href="#m5dc0add215" y="196.302943"/>
      </g>
     </g>
    </g>
    <g id="ytick_13">
     <g id="line2d_79">
      <g>
       <use style="stroke:#000000;stroke-width:0.6;" x="46.383986" xlink:href="#me7505380e5" y="168.688271"/>
      </g>
     </g>
     <g id="line2d_80">
      <g>
       <use style="stroke:#000000;stroke-width:0.6;" x="457.79976" xlink:href="#m5dc0add215" y="168.688271"/>
      </g>
     </g>
    </g>
    <g id="ytick_14">
     <g id="line2d_81">
      <g>
       <use style="stroke:#000000;stroke-width:0.6;" x="46.383986" xlink:href="#me7505380e5" y="154.880936"/>
      </g>
     </g>
     <g id="line2d_82">
      <g>
       <use style="stroke:#000000;stroke-width:0.6;" x="457.79976" xlink:href="#m5dc0add215" y="154.880936"/>
      </g>
     </g>
    </g>
    <g id="ytick_15">
     <g id="line2d_83">
      <g>
       <use style="stroke:#000000;stroke-width:0.6;" x="46.383986" xlink:href="#me7505380e5" y="141.0736"/>
      </g>
     </g>
     <g id="line2d_84">
      <g>
       <use style="stroke:#000000;stroke-width:0.6;" x="457.79976" xlink:href="#m5dc0add215" y="141.0736"/>
      </g>
     </g>
    </g>
    <g id="ytick_16">
     <g id="line2d_85">
      <g>
       <use style="stroke:#000000;stroke-width:0.6;" x="46.383986" xlink:href="#me7505380e5" y="113.458928"/>
      </g>
     </g>
     <g id="line2d_86">
      <g>
       <use style="stroke:#000000;stroke-width:0.6;" x="457.79976" xlink:href="#m5dc0add215" y="113.458928"/>
      </g>
     </g>
    </g>
    <g id="ytick_17">
     <g id="line2d_87">
      <g>
       <use style="stroke:#000000;stroke-width:0.6;" x="46.383986" xlink:href="#me7505380e5" y="99.651592"/>
      </g>
     </g>
     <g id="line2d_88">
      <g>
       <use style="stroke:#000000;stroke-width:0.6;" x="457.79976" xlink:href="#m5dc0add215" y="99.651592"/>
      </g>
     </g>
    </g>
    <g id="ytick_18">
     <g id="line2d_89">
      <g>
       <use style="stroke:#000000;stroke-width:0.6;" x="46.383986" xlink:href="#me7505380e5" y="85.844256"/>
      </g>
     </g>
     <g id="line2d_90">
      <g>
       <use style="stroke:#000000;stroke-width:0.6;" x="457.79976" xlink:href="#m5dc0add215" y="85.844256"/>
      </g>
     </g>
    </g>
    <g id="ytick_19">
     <g id="line2d_91">
      <g>
       <use style="stroke:#000000;stroke-width:0.6;" x="46.383986" xlink:href="#me7505380e5" y="58.229584"/>
      </g>
     </g>
     <g id="line2d_92">
      <g>
       <use style="stroke:#000000;stroke-width:0.6;" x="457.79976" xlink:href="#m5dc0add215" y="58.229584"/>
      </g>
     </g>
    </g>
    <g id="ytick_20">
     <g id="line2d_93">
      <g>
       <use style="stroke:#000000;stroke-width:0.6;" x="46.383986" xlink:href="#me7505380e5" y="44.422248"/>
      </g>
     </g>
     <g id="line2d_94">
      <g>
       <use style="stroke:#000000;stroke-width:0.6;" x="457.79976" xlink:href="#m5dc0add215" y="44.422248"/>
      </g>
     </g>
    </g>
    <g id="ytick_21">
     <g id="line2d_95">
      <g>
       <use style="stroke:#000000;stroke-width:0.6;" x="46.383986" xlink:href="#me7505380e5" y="30.614912"/>
      </g>
     </g>
     <g id="line2d_96">
      <g>
       <use style="stroke:#000000;stroke-width:0.6;" x="457.79976" xlink:href="#m5dc0add215" y="30.614912"/>
      </g>
     </g>
    </g>
    <g id="text_14">
     <!-- $\hat y (x)$ -->
     <defs>
      <path d="M 22.90625 69 
L 10.59375 55.1875 
L 11.796875 54 
L 22.90625 64.984375 
L 34 54 
L 35.203125 55.1875 
z
" id="CMR17-94"/>
      <path d="M 26.296875 -10.515625 
C 23.59375 -14.390625 19.703125 -18 14.796875 -18 
C 13.59375 -18 8.796875 -17.796875 7.296875 -12.90625 
C 7.59375 -13.015625 8.09375 -13.015625 8.296875 -13.015625 
C 11.296875 -13.015625 13.296875 -10.40625 13.296875 -8.109375 
C 13.296875 -5.8125 11.40625 -5 9.90625 -5 
C 8.296875 -5 4.796875 -6.203125 4.796875 -11.109375 
C 4.796875 -16.40625 9.09375 -20 14.796875 -20 
C 24.796875 -20 34.90625 -10.515625 37.703125 -0.109375 
L 47.5 38.796875 
C 47.59375 39.296875 47.796875 39.890625 47.796875 40.484375 
C 47.796875 41.984375 46.59375 43 45.09375 43 
C 44.203125 43 42.09375 42.59375 41.296875 39.59375 
L 33.90625 10.265625 
C 33.40625 8.46875 33.40625 8.28125 32.59375 7.171875 
C 30.59375 4.390625 27.296875 1 22.5 1 
C 16.90625 1 16.40625 6.484375 16.40625 9.171875 
C 16.40625 14.859375 19.09375 22.546875 21.796875 29.71875 
C 22.90625 32.609375 23.5 34.015625 23.5 36.015625 
C 23.5 40.203125 20.5 44 15.59375 44 
C 6.40625 44 2.703125 29.53125 2.703125 28.71875 
C 2.703125 28.328125 3.09375 27.828125 3.796875 27.828125 
C 4.703125 27.828125 4.796875 28.234375 5.203125 29.625 
C 7.59375 38 11.40625 41.984375 15.296875 41.984375 
C 16.203125 41.984375 17.90625 41.984375 17.90625 38.703125 
C 17.90625 36.109375 16.796875 33.21875 15.296875 29.421875 
C 10.40625 16.359375 10.40625 13.0625 10.40625 10.671875 
C 10.40625 1.1875 17.203125 -1 22.203125 -1 
C 25.09375 -1 28.703125 -0.109375 32.203125 3.59375 
L 32.296875 3.484375 
C 30.796875 -2.203125 29.796875 -5.609375 26.296875 -10.515625 
z
" id="CMMI12-121"/>
      <path d="M 30.59375 -24.40625 
C 30.59375 -24.3125 30.59375 -24.109375 30.296875 -23.8125 
C 25.703125 -19.109375 13.40625 -6.296875 13.40625 24.9375 
C 13.40625 56.171875 25.5 68.875 30.40625 73.890625 
C 30.40625 73.984375 30.59375 74.1875 30.59375 74.484375 
C 30.59375 74.796875 30.296875 75 29.90625 75 
C 28.796875 75 20.296875 67.578125 15.40625 56.5625 
C 10.40625 45.453125 9 34.65625 9 25.046875 
C 9 17.828125 9.703125 5.625 15.703125 -7.296875 
C 20.5 -17.703125 28.703125 -25 29.90625 -25 
C 30.40625 -25 30.59375 -24.8125 30.59375 -24.40625 
z
" id="CMR17-40"/>
      <path d="M 26.296875 24.9375 
C 26.296875 32.140625 25.59375 44.359375 19.59375 57.265625 
C 14.796875 67.6875 6.59375 75 5.40625 75 
C 5.09375 75 4.703125 74.890625 4.703125 74.390625 
C 4.703125 74.1875 4.796875 74.09375 4.90625 73.890625 
C 9.703125 68.875 21.90625 56.171875 21.90625 25.046875 
C 21.90625 -6.1875 9.796875 -18.90625 4.90625 -23.90625 
C 4.796875 -24.109375 4.703125 -24.203125 4.703125 -24.40625 
C 4.703125 -24.90625 5.09375 -25 5.40625 -25 
C 6.5 -25 15 -17.609375 19.90625 -6.59375 
C 24.90625 4.515625 26.296875 15.328125 26.296875 24.9375 
z
" id="CMR17-41"/>
     </defs>
     <g transform="translate(14.955408 169.476532)rotate(-90)scale(0.16 -0.16)">
      <use transform="translate(8.143595 0.006461)scale(0.996264)" xlink:href="#CMR17-94"/>
      <use transform="scale(0.996264)" xlink:href="#CMMI12-121"/>
      <use transform="translate(51.138781 0)scale(0.996264)" xlink:href="#CMR17-40"/>
      <use transform="translate(86.419549 0)scale(0.996264)" xlink:href="#CMMI12-120"/>
      <use transform="translate(141.853608 0)scale(0.996264)" xlink:href="#CMR17-41"/>
     </g>
    </g>
   </g>
   <g id="line2d_97">
    <path clip-path="url(#p0128338af7)" d="M 65.084703 292.954295 
L 68.824847 292.954019 
L 72.56499 292.952086 
L 76.305134 292.946839 
L 80.045277 292.936622 
L 83.78542 292.919777 
L 87.525564 292.894647 
L 91.265707 292.859577 
L 95.005851 292.812908 
L 98.745994 292.752984 
L 102.486137 292.678148 
L 106.226281 292.586744 
L 109.966424 292.477114 
L 113.706568 292.347601 
L 117.446711 292.196548 
L 121.186854 292.0223 
L 124.926998 291.823198 
L 128.667141 291.597586 
L 132.407285 291.343807 
L 136.147428 291.060205 
L 139.887571 290.745121 
L 143.627715 290.3969 
L 147.367858 290.013885 
L 151.108002 289.594418 
L 154.848145 289.136843 
L 158.588288 288.639503 
L 162.328432 288.10074 
L 166.068575 287.518899 
L 169.808719 286.892322 
L 173.548862 286.219353 
L 177.289005 285.498334 
L 181.029149 284.727608 
L 184.769292 283.905519 
L 188.509436 283.03041 
L 192.249579 282.100624 
L 195.989722 281.114504 
L 199.729866 280.070394 
L 203.470009 278.966635 
L 207.210153 277.801572 
L 210.950296 276.573548 
L 214.690439 275.280905 
L 218.430583 273.921987 
L 222.170726 272.495137 
L 225.910869 270.998698 
L 229.651013 269.431013 
L 233.391156 267.790425 
L 237.1313 266.075278 
L 240.871443 264.283914 
L 244.611586 262.414677 
L 248.35173 260.46591 
L 252.091873 258.435955 
L 255.832017 256.323157 
L 259.57216 254.125857 
L 263.312303 251.8424 
L 267.052447 249.471128 
L 270.79259 247.010385 
L 274.532734 244.458513 
L 278.272877 241.813856 
L 282.01302 239.074756 
L 285.753164 236.239558 
L 289.493307 233.306604 
L 293.233451 230.274237 
L 296.973594 227.1408 
L 300.713737 223.904636 
L 304.453881 220.56409 
L 308.194024 217.117502 
L 311.934168 213.563218 
L 315.674311 209.899579 
L 319.414454 206.12493 
L 323.154598 202.237613 
L 326.894741 198.23597 
L 330.634885 194.118347 
L 334.375028 189.883084 
L 338.115171 185.528527 
L 341.855315 181.053017 
L 345.595458 176.454898 
L 349.335602 171.732513 
L 353.075745 166.884205 
L 356.815888 161.908317 
L 360.556032 156.803193 
L 364.296175 151.567175 
L 368.036319 146.198607 
L 371.776462 140.695831 
L 375.516605 135.057191 
L 379.256749 129.28103 
L 382.996892 123.365691 
L 386.737035 117.309517 
L 390.477179 111.110852 
L 394.217322 104.768038 
L 397.957466 98.279419 
L 401.697609 91.643337 
L 405.437752 84.858136 
L 409.177896 77.922159 
L 412.918039 70.833749 
L 416.658183 63.591249 
L 420.398326 56.193002 
L 424.138469 48.637351 
L 427.878613 40.92264 
L 431.618756 33.047212 
L 435.3589 25.00941 
L 439.099043 16.807576 
" style="fill:none;stroke:#1f77b4;stroke-linecap:square;stroke-width:1.5;"/>
   </g>
   <g id="line2d_98">
    <path clip-path="url(#p0128338af7)" d="M 65.084703 292.954295 
L 68.824847 291.573561 
L 72.56499 290.192828 
L 76.305134 288.812094 
L 80.045277 287.431361 
L 83.78542 286.050627 
L 87.525564 284.669893 
L 91.265707 283.28916 
L 95.005851 281.908426 
L 98.745994 280.527693 
L 102.486137 279.146959 
L 106.226281 277.766226 
L 109.966424 276.385492 
L 113.706568 275.004758 
L 117.446711 273.624025 
L 121.186854 272.243291 
L 124.926998 270.862558 
L 128.667141 269.481824 
L 132.407285 268.10109 
L 136.147428 266.720357 
L 139.887571 265.339623 
L 143.627715 263.95889 
L 147.367858 262.578156 
L 151.108002 261.197422 
L 154.848145 259.816689 
L 158.588288 258.435955 
L 162.328432 257.055222 
L 166.068575 255.674488 
L 169.808719 254.293754 
L 173.548862 252.913021 
L 177.289005 251.532287 
L 181.029149 250.151554 
L 184.769292 248.77082 
L 188.509436 247.390086 
L 192.249579 246.009353 
L 195.989722 244.628619 
L 199.729866 243.247886 
L 203.470009 241.867152 
L 207.210153 240.486418 
L 210.950296 239.105685 
L 214.690439 237.724951 
L 218.430583 236.344218 
L 222.170726 234.963484 
L 225.910869 233.58275 
L 229.651013 232.202017 
L 233.391156 230.821283 
L 237.1313 229.44055 
L 240.871443 228.059816 
L 244.611586 226.679082 
L 248.35173 225.298349 
L 252.091873 223.917615 
L 255.832017 222.536882 
L 259.57216 221.156148 
L 263.312303 219.775414 
L 267.052447 218.394681 
L 270.79259 217.013947 
L 274.532734 215.633214 
L 278.272877 214.25248 
L 282.01302 212.871747 
L 285.753164 211.491013 
L 289.493307 210.110279 
L 293.233451 208.729546 
L 296.973594 207.348812 
L 300.713737 205.968079 
L 304.453881 204.587345 
L 308.194024 203.206611 
L 311.934168 201.825878 
L 315.674311 200.445144 
L 319.414454 199.064411 
L 323.154598 197.683677 
L 326.894741 196.302943 
L 330.634885 194.92221 
L 334.375028 193.541476 
L 338.115171 192.160743 
L 341.855315 190.780009 
L 345.595458 189.399275 
L 349.335602 188.018542 
L 353.075745 186.637808 
L 356.815888 185.257075 
L 360.556032 183.876341 
L 364.296175 182.495607 
L 368.036319 181.114874 
L 371.776462 179.73414 
L 375.516605 178.353407 
L 379.256749 176.972673 
L 382.996892 175.591939 
L 386.737035 174.211206 
L 390.477179 172.830472 
L 394.217322 171.449739 
L 397.957466 170.069005 
L 401.697609 168.688271 
L 405.437752 167.307538 
L 409.177896 165.926804 
L 412.918039 164.546071 
L 416.658183 163.165337 
L 420.398326 161.784603 
L 424.138469 160.40387 
L 427.878613 159.023136 
L 431.618756 157.642403 
L 435.3589 156.261669 
L 439.099043 154.880936 
" style="fill:none;stroke:#ff7f0e;stroke-linecap:square;stroke-width:1.5;"/>
   </g>
   <g id="line2d_99">
    <path clip-path="url(#p0128338af7)" d="M 65.084703 292.954295 
L 68.824847 290.883195 
L 72.56499 288.812094 
L 76.305134 286.740994 
L 80.045277 284.669893 
L 83.78542 282.598793 
L 87.525564 280.527693 
L 91.265707 278.456592 
L 95.005851 276.385492 
L 98.745994 274.314392 
L 102.486137 272.243291 
L 106.226281 270.172191 
L 109.966424 268.10109 
L 113.706568 266.02999 
L 117.446711 263.95889 
L 121.186854 261.887789 
L 124.926998 259.816689 
L 128.667141 257.745588 
L 132.407285 255.674488 
L 136.147428 253.603388 
L 139.887571 251.532287 
L 143.627715 249.461187 
L 147.367858 247.390086 
L 151.108002 245.318986 
L 154.848145 243.247886 
L 158.588288 241.176785 
L 162.328432 239.105685 
L 166.068575 237.034584 
L 169.808719 234.963484 
L 173.548862 232.892384 
L 177.289005 230.821283 
L 181.029149 228.750183 
L 184.769292 226.679082 
L 188.509436 224.607982 
L 192.249579 222.536882 
L 195.989722 220.465781 
L 199.729866 218.394681 
L 203.470009 216.323581 
L 207.210153 214.25248 
L 210.950296 212.18138 
L 214.690439 210.110279 
L 218.430583 208.039179 
L 222.170726 205.968079 
L 225.910869 203.896978 
L 229.651013 201.825878 
L 233.391156 199.754777 
L 237.1313 197.683677 
L 240.871443 195.612577 
L 244.611586 193.541476 
L 248.35173 191.470376 
L 252.091873 189.399275 
L 255.832017 187.328175 
L 259.57216 185.257075 
L 263.312303 183.185974 
L 267.052447 181.114874 
L 270.79259 179.043773 
L 274.532734 176.972673 
L 278.272877 174.901573 
L 282.01302 172.830472 
L 285.753164 170.759372 
L 289.493307 168.688271 
L 293.233451 166.617171 
L 296.973594 164.546071 
L 300.713737 162.47497 
L 304.453881 160.40387 
L 308.194024 158.332769 
L 311.934168 156.261669 
L 315.674311 154.190569 
L 319.414454 152.119468 
L 323.154598 150.048368 
L 326.894741 147.977268 
L 330.634885 145.906167 
L 334.375028 143.835067 
L 338.115171 141.763966 
L 341.855315 139.692866 
L 345.595458 137.621766 
L 349.335602 135.550665 
L 353.075745 133.479565 
L 356.815888 131.408464 
L 360.556032 129.337364 
L 364.296175 127.266264 
L 368.036319 125.195163 
L 371.776462 123.124063 
L 375.516605 121.052962 
L 379.256749 118.981862 
L 382.996892 116.910762 
L 386.737035 114.839661 
L 390.477179 112.768561 
L 394.217322 110.69746 
L 397.957466 108.62636 
L 401.697609 106.55526 
L 405.437752 104.484159 
L 409.177896 102.413059 
L 412.918039 100.341958 
L 416.658183 98.270858 
L 420.398326 96.199758 
L 424.138469 94.128657 
L 427.878613 92.057557 
L 431.618756 89.986457 
L 435.3589 87.915356 
L 439.099043 85.844256 
" style="fill:none;stroke:#2ca02c;stroke-linecap:square;stroke-width:1.5;"/>
   </g>
   <g id="line2d_100">
    <path clip-path="url(#p0128338af7)" d="M 65.084703 292.954295 
L 68.824847 290.192828 
L 72.56499 287.431361 
L 76.305134 284.669893 
L 80.045277 281.908426 
L 83.78542 279.146959 
L 87.525564 276.385492 
L 91.265707 273.624025 
L 95.005851 270.862558 
L 98.745994 268.10109 
L 102.486137 265.339623 
L 106.226281 262.578156 
L 109.966424 259.816689 
L 113.706568 257.055222 
L 117.446711 254.293754 
L 121.186854 251.532287 
L 124.926998 248.77082 
L 128.667141 246.009353 
L 132.407285 243.247886 
L 136.147428 240.486418 
L 139.887571 237.724951 
L 143.627715 234.963484 
L 147.367858 232.202017 
L 151.108002 229.44055 
L 154.848145 226.679082 
L 158.588288 223.917615 
L 162.328432 221.156148 
L 166.068575 218.394681 
L 169.808719 215.633214 
L 173.548862 212.871747 
L 177.289005 210.110279 
L 181.029149 207.348812 
L 184.769292 204.587345 
L 188.509436 201.825878 
L 192.249579 199.064411 
L 195.989722 196.302943 
L 199.729866 193.541476 
L 203.470009 190.780009 
L 207.210153 188.018542 
L 210.950296 185.257075 
L 214.690439 182.495607 
L 218.430583 179.73414 
L 222.170726 176.972673 
L 225.910869 174.211206 
L 229.651013 171.449739 
L 233.391156 168.688271 
L 237.1313 165.926804 
L 240.871443 163.165337 
L 244.611586 160.40387 
L 248.35173 157.642403 
L 252.091873 154.880936 
L 255.832017 152.119468 
L 259.57216 149.358001 
L 263.312303 146.596534 
L 267.052447 143.835067 
L 270.79259 141.0736 
L 274.532734 138.312132 
L 278.272877 135.550665 
L 282.01302 132.789198 
L 285.753164 130.027731 
L 289.493307 127.266264 
L 293.233451 124.504796 
L 296.973594 121.743329 
L 300.713737 118.981862 
L 304.453881 116.220395 
L 308.194024 113.458928 
L 311.934168 110.69746 
L 315.674311 107.935993 
L 319.414454 105.174526 
L 323.154598 102.413059 
L 326.894741 99.651592 
L 330.634885 96.890124 
L 334.375028 94.128657 
L 338.115171 91.36719 
L 341.855315 88.605723 
L 345.595458 85.844256 
L 349.335602 83.082789 
L 353.075745 80.321321 
L 356.815888 77.559854 
L 360.556032 74.798387 
L 364.296175 72.03692 
L 368.036319 69.275453 
L 371.776462 66.513985 
L 375.516605 63.752518 
L 379.256749 60.991051 
L 382.996892 58.229584 
L 386.737035 55.468117 
L 390.477179 52.706649 
L 394.217322 49.945182 
L 397.957466 47.183715 
L 401.697609 44.422248 
L 405.437752 41.660781 
L 409.177896 38.899313 
L 412.918039 36.137846 
L 416.658183 33.376379 
L 420.398326 30.614912 
L 424.138469 27.853445 
L 427.878613 25.091978 
L 431.618756 22.33051 
L 435.3589 19.569043 
L 439.099043 16.807576 
" style="fill:none;stroke:#d62728;stroke-linecap:square;stroke-width:1.5;"/>
   </g>
   <g id="patch_3">
    <path d="M 46.383986 306.761631 
L 46.383986 3.00024 
" style="fill:none;stroke:#000000;stroke-linecap:square;stroke-linejoin:miter;stroke-width:0.8;"/>
   </g>
   <g id="patch_4">
    <path d="M 457.79976 306.761631 
L 457.79976 3.00024 
" style="fill:none;stroke:#000000;stroke-linecap:square;stroke-linejoin:miter;stroke-width:0.8;"/>
   </g>
   <g id="patch_5">
    <path d="M 46.383986 306.761631 
L 457.79976 306.761631 
" style="fill:none;stroke:#000000;stroke-linecap:square;stroke-linejoin:miter;stroke-width:0.8;"/>
   </g>
   <g id="patch_6">
    <path d="M 46.383986 3.00024 
L 457.79976 3.00024 
" style="fill:none;stroke:#000000;stroke-linecap:square;stroke-linejoin:miter;stroke-width:0.8;"/>
   </g>
   <g id="legend_1">
    <g id="patch_7">
     <path d="M 57.583986 104.998145 
L 170.321197 104.998145 
Q 173.521197 104.998145 173.521197 101.798145 
L 173.521197 14.20024 
Q 173.521197 11.00024 170.321197 11.00024 
L 57.583986 11.00024 
Q 54.383986 11.00024 54.383986 14.20024 
L 54.383986 101.798145 
Q 54.383986 104.998145 57.583986 104.998145 
z
" style="fill:#ffffff;opacity:0.8;stroke:#cccccc;stroke-linejoin:miter;"/>
    </g>
    <g id="line2d_101">
     <path d="M 60.783986 23.00024 
L 92.783986 23.00024 
" style="fill:none;stroke:#1f77b4;stroke-linecap:square;stroke-width:1.5;"/>
    </g>
    <g id="line2d_102"/>
    <g id="text_15">
     <!-- Exact -->
     <defs>
      <path d="M 30.59375 6.796875 
C 22.59375 6.796875 19 6.796875 17.203125 6.6875 
L 17.203125 32.890625 
L 48.203125 32.890625 
L 48.203125 39 
L 17.203125 39 
L 17.203125 62.390625 
L 30.09375 62.390625 
C 31.296875 62.390625 32.5 62.296875 33.703125 62.296875 
L 50.796875 62.296875 
L 50.796875 68.796875 
L 8.796875 68.796875 
L 8.796875 0 
L 52.09375 0 
L 52.09375 6.890625 
z
" id="CMSS17-69"/>
      <path d="M 24.796875 22.1875 
L 41.5 43 
L 32.796875 43 
L 21.296875 27.890625 
L 9.40625 43 
L 0.5 43 
L 17.796875 22.1875 
L 0 0 
L 8.796875 0 
L 21.296875 17.59375 
L 34.296875 0 
L 43.09375 0 
z
" id="CMSS17-120"/>
      <path d="M 37.59375 27.953125 
C 37.59375 37.484375 30.90625 44 21.90625 44 
C 17.5 44 12.703125 43.1875 7.203125 39.984375 
L 7.796875 33.328125 
C 10.296875 35.15625 14.59375 38.09375 21.796875 38.09375 
C 26.90625 38.09375 30 34.140625 30 27.84375 
L 30 24 
C 14 23.5 4 18.890625 4 11.109375 
C 4 7.0625 6.5 -1 14.796875 -1 
C 16.296875 -1 24.40625 -0.8125 30.203125 3.5 
L 30.203125 -0.203125 
L 37.59375 -0.203125 
z
M 30 12.875 
C 30 11.109375 30 8.734375 27 6.96875 
C 24.40625 5.296875 21.09375 5.09375 19.703125 5.09375 
C 14.703125 5.09375 11.296875 7.859375 11.296875 11.296875 
C 11.296875 18.203125 26.90625 18.890625 30 19 
z
" id="CMSS17-97"/>
      <path d="M 38.5 39.6875 
C 38.5 40.390625 33.90625 42.390625 32.703125 42.796875 
C 29.40625 44 25.203125 44 24.09375 44 
C 11.09375 44 3.296875 32.6875 3.296875 21.296875 
C 3.296875 9.296875 12 -1 23.703125 -1 
C 30.40625 -1 35.203125 1.1875 39.09375 3.796875 
L 38.5 10.390625 
C 34.203125 7.09375 29.203125 5.296875 23.796875 5.296875 
C 16 5.296875 10.90625 12.09375 10.90625 21.390625 
C 10.90625 28.59375 14.203125 37.6875 24.203125 37.6875 
C 29.703125 37.6875 32.796875 36.59375 37.40625 33.484375 
z
" id="CMSS17-99"/>
      <path d="M 16.703125 37.1875 
L 29.703125 37.1875 
L 29.703125 43 
L 16.703125 43 
L 16.703125 55 
L 9.59375 55 
L 9.59375 43 
L 1.703125 43 
L 1.703125 37.1875 
L 9.40625 37.1875 
L 9.40625 11.734375 
C 9.40625 6 10.703125 -1 17.296875 -1 
C 22.296875 -1 26.90625 0.390625 31.296875 2.6875 
L 29.703125 8.609375 
C 27.296875 6.5 24.40625 5.296875 21.296875 5.296875 
C 16.90625 5.296875 16.703125 10.921875 16.703125 13.4375 
z
" id="CMSS17-116"/>
     </defs>
     <g transform="translate(105.583986 28.60024)scale(0.16 -0.16)">
      <use transform="scale(0.996264)" xlink:href="#CMSS17-69"/>
      <use transform="translate(55.892013 0)scale(0.996264)" xlink:href="#CMSS17-120"/>
      <use transform="translate(98.892155 0)scale(0.996264)" xlink:href="#CMSS17-97"/>
      <use transform="translate(143.814076 0)scale(0.996264)" xlink:href="#CMSS17-99"/>
      <use transform="translate(185.452898 0)scale(0.996264)" xlink:href="#CMSS17-116"/>
     </g>
    </g>
    <g id="line2d_103">
     <path d="M 60.783986 45.299716 
L 92.783986 45.299716 
" style="fill:none;stroke:#ff7f0e;stroke-linecap:square;stroke-width:1.5;"/>
    </g>
    <g id="line2d_104"/>
    <g id="text_16">
     <!-- $c_1=0.5$ -->
     <defs>
      <path d="M 39.09375 38 
C 37.203125 38 36.296875 38 34.90625 36.796875 
C 34.296875 36.296875 33.203125 34.796875 33.203125 33.1875 
C 33.203125 31.1875 34.703125 29.984375 36.59375 29.984375 
C 39 29.984375 41.703125 31.984375 41.703125 35.984375 
C 41.703125 40.484375 37.09375 44 30.203125 44 
C 17.09375 44 4 30.1875 4 15.796875 
C 4 6.96875 9.40625 -1 19.59375 -1 
C 33.203125 -1 41.796875 9.71875 41.796875 11.03125 
C 41.796875 11.640625 41.203125 12.140625 40.796875 12.140625 
C 40.5 12.140625 40.40625 12.046875 39.5 11.125 
C 33.09375 2.515625 23.59375 1 19.796875 1 
C 12.90625 1 10.703125 7.078125 10.703125 12.140625 
C 10.703125 15.6875 12.40625 25.53125 16 32.390625 
C 18.59375 37.09375 24 41.984375 30.296875 41.984375 
C 31.59375 41.984375 37.09375 41.8125 39.09375 38 
z
" id="CMMI12-99"/>
      <path d="M 64.296875 32 
C 65.796875 32 67.296875 32 67.296875 33.6875 
C 67.296875 35.5 65.59375 35.5 63.90625 35.5 
L 8 35.5 
C 6.296875 35.5 4.59375 35.5 4.59375 33.6875 
C 4.59375 32 6.09375 32 7.59375 32 
z
M 63.90625 14.484375 
C 65.59375 14.484375 67.296875 14.484375 67.296875 16.296875 
C 67.296875 18 65.796875 18 64.296875 18 
L 7.59375 18 
C 6.09375 18 4.59375 18 4.59375 16.296875 
C 4.59375 14.484375 6.296875 14.484375 8 14.484375 
z
" id="CMR17-61"/>
      <path d="M 11.40625 58.59375 
C 12.40625 58.1875 16.5 56.890625 20.703125 56.890625 
C 30 56.890625 35.09375 61.890625 38 64.6875 
C 38 65.484375 38 66 37.40625 66 
C 37.296875 66 37.09375 66 36.296875 65.59375 
C 32.796875 64.09375 28.703125 63 23.703125 63 
C 20.703125 63 16.203125 63.359375 11.296875 65.484375 
C 10.203125 66 10 66 9.90625 66 
C 9.40625 66 9.296875 65.890625 9.296875 63.90625 
L 9.296875 34.859375 
C 9.296875 33.015625 9.296875 32.5 10.296875 32.5 
C 10.796875 32.5 11 32.703125 11.5 33.421875 
C 14.703125 38.046875 19.09375 40 24.09375 40 
C 27.59375 40 35.09375 37.734375 35.09375 20.203125 
C 35.09375 16.984375 35.09375 11.1875 32.09375 6.59375 
C 29.59375 2.484375 25.703125 0.390625 21.40625 0.390625 
C 14.796875 0.390625 8.09375 4.984375 6.296875 12.6875 
C 6.703125 12.59375 7.5 12.390625 7.90625 12.390625 
C 9.203125 12.390625 11.703125 13.09375 11.703125 16.1875 
C 11.703125 18.890625 9.796875 20 7.90625 20 
C 5.59375 20 4.09375 18.59375 4.09375 15.796875 
C 4.09375 7.09375 11 -2 21.59375 -2 
C 31.90625 -2 41.703125 6.890625 41.703125 19.796875 
C 41.703125 32.09375 33.90625 41.59375 24.203125 41.59375 
C 19.09375 41.59375 14.796875 39.6875 11.40625 36 
z
" id="CMR17-53"/>
     </defs>
     <g transform="translate(105.583986 50.899716)scale(0.16 -0.16)">
      <use transform="translate(0 14.943915)scale(0.996264)" xlink:href="#CMMI12-99"/>
      <use transform="translate(41.983234 0)scale(0.697382)" xlink:href="#CMR17-49"/>
      <use transform="translate(102.138556 14.943915)scale(0.996264)" xlink:href="#CMR17-61"/>
      <use transform="translate(201.527353 14.943915)scale(0.996264)" xlink:href="#CMR17-48"/>
      <use transform="translate(247.217831 14.943915)scale(0.996264)" xlink:href="#CMMI12-58"/>
      <use transform="translate(274.315008 14.943915)scale(0.996264)" xlink:href="#CMR17-53"/>
     </g>
    </g>
    <g id="line2d_105">
     <path d="M 60.783986 67.599192 
L 92.783986 67.599192 
" style="fill:none;stroke:#2ca02c;stroke-linecap:square;stroke-width:1.5;"/>
    </g>
    <g id="line2d_106"/>
    <g id="text_17">
     <!-- $c_1=0.75$ -->
     <defs>
      <path d="M 45.09375 61.796875 
L 45.09375 64 
L 21.59375 64 
C 9.90625 64 9.703125 65.09375 9.296875 67 
L 7.5 67 
L 4.59375 48.5 
L 6.40625 48.5 
C 6.703125 50.40625 7.40625 55.5 8.59375 57.390625 
C 9.203125 58.1875 16.59375 58.1875 18.296875 58.1875 
L 40.296875 58.1875 
L 29.203125 41.71875 
C 21.796875 30.640625 16.703125 15.671875 16.703125 2.59375 
C 16.703125 1.390625 16.703125 -2 20.296875 -2 
C 23.90625 -2 23.90625 1.390625 23.90625 2.6875 
L 23.90625 7.28125 
C 23.90625 23.65625 26.703125 34.4375 31.296875 41.3125 
z
" id="CMR17-55"/>
     </defs>
     <g transform="translate(105.583986 73.199192)scale(0.16 -0.16)">
      <use transform="translate(0 14.943915)scale(0.996264)" xlink:href="#CMMI12-99"/>
      <use transform="translate(41.983234 0)scale(0.697382)" xlink:href="#CMR17-49"/>
      <use transform="translate(102.138556 14.943915)scale(0.996264)" xlink:href="#CMR17-61"/>
      <use transform="translate(201.527353 14.943915)scale(0.996264)" xlink:href="#CMR17-48"/>
      <use transform="translate(247.217831 14.943915)scale(0.996264)" xlink:href="#CMMI12-58"/>
      <use transform="translate(274.315008 14.943915)scale(0.996264)" xlink:href="#CMR17-55"/>
      <use transform="translate(320.005485 14.943915)scale(0.996264)" xlink:href="#CMR17-53"/>
     </g>
    </g>
    <g id="line2d_107">
     <path d="M 60.783986 89.898669 
L 92.783986 89.898669 
" style="fill:none;stroke:#d62728;stroke-linecap:square;stroke-width:1.5;"/>
    </g>
    <g id="line2d_108"/>
    <g id="text_18">
     <!-- $c_1=1.0$ -->
     <g transform="translate(105.583986 95.498669)scale(0.16 -0.16)">
      <use transform="translate(0 14.943915)scale(0.996264)" xlink:href="#CMMI12-99"/>
      <use transform="translate(41.983234 0)scale(0.697382)" xlink:href="#CMR17-49"/>
      <use transform="translate(102.138556 14.943915)scale(0.996264)" xlink:href="#CMR17-61"/>
      <use transform="translate(201.527353 14.943915)scale(0.996264)" xlink:href="#CMR17-49"/>
      <use transform="translate(247.217831 14.943915)scale(0.996264)" xlink:href="#CMMI12-58"/>
      <use transform="translate(274.315008 14.943915)scale(0.996264)" xlink:href="#CMR17-48"/>
     </g>
    </g>
   </g>
  </g>
 </g>
 <defs>
  <clipPath id="p0128338af7">
   <rect height="303.761391" width="411.415774" x="46.383986" y="3.00024"/>
  </clipPath>
 </defs>
</svg>
